<svg xmlns="http://www.w3.org/2000/svg" xmlns:xlink="http://www.w3.org/1999/xlink" width="430" height="246" version="1.1" viewBox="0 0 430 246"><title>Group 2</title><desc>Created with Sketch.</desc><g id="transloco" fill="none" fill-rule="evenodd" stroke="none" stroke-width="1"><g id="Artboard-Copy-7" transform="translate(-108.000000, -47.000000)"><g id="Group-2" transform="translate(107.000000, 47.000000)"><text id="{" fill="#37383A" font-family="Arial" font-size="61" font-weight="300"><tspan x="0" y="234">{</tspan></text><text id="}" fill="#37383A" font-family="Arial" font-size="61" font-weight="300"><tspan x="407" y="233">}</tspan></text><text id="TransLoco" fill="#37383A" font-family="Arial" font-size="59" font-weight="300"><tspan x="32" y="238">TRANSLOCO</tspan></text><g id="Group" fill-rule="nonzero" transform="translate(89.000000, 0.000000)"><polygon id="Left" fill="#06c4f1" points="7.035 105.342 7.035 18.782 125 18.782 127.218 12.123 0 12.123 0 112 101.611 112 103 105.342"/><path id="大" fill="#06c4f1" stroke="#06c4f1" d="M34.3318283,49.5343004 L56.2780429,49.5343004 C56.6254764,46.5232103 56.8570987,43.4542146 56.9150043,40.2115021 L56.9150043,35 L63.0529957,35 L63.0529957,38.8217682 C63.0529957,42.5856309 62.8213734,46.1757768 62.4160343,49.5343004 L85.6361717,49.5343004 L85.6361717,55.4406695 L63.8057682,55.4406695 C67.97497,67.5429356 75.676412,76.8657339 86.968,83.46697 L83.1462318,88.4468498 C72.2599828,81.7298026 64.5585408,72.4070043 60.1577167,60.4784549 C56.2201373,73.3913991 48.4607897,82.8879142 36.8796738,88.968 L33,83.872309 C44.696927,78.1975622 52.1088412,68.7010472 55.2357425,55.4406695 L34.3318283,55.4406695 L34.3318283,49.5343004 Z" strokeWidth="2"/><polygon id="Line" fill="currentColor" points="143.108 0 103 148 106.734 148 147 0"/><polygon id="T" fill="#ec079e" points="212.919 62.003 196.209 62.003 196.209 109.325 186.675 109.325 186.675 62.003 170 62.003 170 55 212.919 55"/><polygon id="Right" fill="#ec079e" points="132.11 125.333 132.11 38.667 251.591 38.667 252.906 32 125 32 125 132 229.064 132 230.906 125.333" transform="translate(188.953072, 82.000000) scale(-1, -1) translate(-188.953072, -82.000000)"/></g></g></g></g></svg>